<?xml version="1.0" encoding="UTF-8"?>
<!DOCTYPE svg PUBLIC "-//W3C//DTD SVG 1.1//EN" "http://www.w3.org/Graphics/SVG/1.1/DTD/svg11.dtd">
<!-- Creator: CorelDRAW X6 -->
<svg xmlns="http://www.w3.org/2000/svg" xml:space="preserve" width="853" height="640" version="1.1" style="shape-rendering:geometricPrecision; text-rendering:geometricPrecision; image-rendering:optimizeQuality; fill-rule:evenodd; clip-rule:evenodd"
viewBox="3000 2800 2900 1000"
 xmlns:xlink="http://www.w3.org/1999/xlink">
 <defs>
  <style type="text/css">
   <![CDATA[
    .fil0 {fill:#000;fill-rule:nonzero}
   ]]>
  </style>
 </defs>
 <g id="__x0023_Layer_x0020_1">
  <metadata id="CorelCorpID_0Corel-Layer"/>
  <g id="_351488856">
   <path class="fil0" d="M4950 2402l-362 0c0,0 -48,497 -78,745 -26,-248 -66,-745 -66,-745l-389 0 182 1305 522 1 225 -1306 -33 0zm-33 56l0 0c-10,60 -198,1151 -206,1195 -40,0 -386,-1 -427,-1 -6,-45 -159,-1135 -167,-1194 48,0 237,0 275,0 5,47 86,827 86,827l55 1c0,0 97,-781 102,-827 38,0 231,0 280,0z"/>
  </g>
  <g id="_351489504">
   <path class="fil0" d="M3616 2563c-60,0 -128,0 -128,94l0 236c0,25 9,46 25,63 36,36 96,36 103,36l24 0 0 -428 -24 0zm-69 358l0 0c-7,-7 -11,-16 -11,-28l0 -236c0,-35 6,-43 55,-45 0,40 0,285 0,328 -15,-3 -33,-8 -44,-19z"/>
  </g>
  <g id="_351489528">
   <path class="fil0" d="M5352 3041l0 366 1 12c0,23 28,57 75,57 47,0 75,-34 75,-57l1 -11 0 -325 -152 -82 0 41zm49 41l0 0c25,13 43,23 55,30 0,26 0,278 0,288 0,16 -10,27 -27,27 -18,0 -28,-12 -28,-29 0,-9 0,-253 0,-316z"/>
  </g>
  <g id="_351489840">
   <path class="fil0" d="M5208 2404c-80,6 -232,60 -232,218 0,0 0,991 0,1026 -89,40 -549,244 -721,244 -154,0 -225,-86 -225,-271l0 -1218 -668 0c-31,0 -137,5 -204,74 -36,37 -54,85 -54,143 0,2 0,4 0,6l0 272c0,42 26,104 92,142 -44,23 -92,60 -92,113l0 352c0,84 -9,102 -21,116 -17,20 -38,38 -38,38l-59 49 506 -1 8 -8c4,-4 40,-41 40,-139l0 -360c0,-27 3,-43 10,-49 6,-5 19,-8 39,-9 0,50 0,591 0,591 0,145 77,527 427,548 338,20 660,-201 797,-295l46 -31c83,-62 222,-140 274,-120 7,3 69,38 2,199 -35,84 -40,103 -40,103 0,0 224,-120 248,-305 1,-9 2,-17 2,-26 0,-35 -9,-67 -26,-98 29,0 87,0 87,0 0,0 -1,-33 -1,-33 29,19 73,33 137,33 224,0 337,-84 337,-251 0,0 -1,-284 -1,-284 0,-55 -16,-127 -144,-192l-93 -45c-70,-33 -238,-114 -238,-142 0,0 0,-162 1,-188 2,-6 7,-13 24,-13 15,0 25,7 25,18 0,7 0,212 0,212l427 0 0 -198c0,-66 -48,-153 -182,-199 -125,-43 -474,-21 -489,-20zm-192 1287l0 0 16 -7 -1 -1061c0,-146 173,-162 180,-163 3,0 352,-22 467,18 107,37 144,100 144,147 0,0 0,103 0,143 -44,0 -272,0 -316,0 0,-41 0,-165 0,-165 0,-23 -17,-65 -80,-65 -55,0 -79,37 -79,61l0 2 -1 194c0,60 102,113 270,191l92 44c113,58 113,113 113,143l1 284c0,133 -90,195 -282,195 -124,0 -160,-73 -168,-83 -6,-9 -26,-45 -26,-45l0 129c-31,0 -141,0 -141,0l39 46c28,33 43,70 43,109 0,6 -1,12 -1,19 -6,76 -59,146 -100,190 19,-33 29,-86 29,-107 0,-21 8,-100 -64,-124 -99,-33 -288,98 -326,127 -3,2 -45,30 -45,30 -133,91 -444,304 -763,285 -365,-21 -375,-487 -375,-492l0 -645 -27 -1c-46,-2 -82,1 -106,24 -24,23 -27,58 -27,89l0 360c0,51 -11,79 -18,92 -22,0 -249,0 -337,1 23,-30 31,-67 31,-148l0 -352c0,-39 81,-76 120,-87l105 -31 -107 -23c-96,-21 -118,-91 -118,-114l0 -272c0,-2 0,-3 0,-5 0,-44 13,-79 38,-105 53,-55 146,-57 164,-57 0,0 561,0 612,0 0,53 0,1163 0,1163 0,270 153,326 281,326 202,0 738,-246 761,-256z"/>
  </g>
 </g>
</svg>
